PathFileType	4	(X/Y/Z)	pose_F01_0-74.trc
DataRate	CameraRate	NumFrames	NumMarkers	Units	OrigDataRate	OrigDataStartFrame	OrigNumFrames
30	30	9	21	m	30	10	74
Frame#	Time	CHip			RHip			RKnee			RAnkle			RBigToe			RSmallToe			RHeel			LHip			LKnee			LAnkle			LBigToe			LSmallToe			LHeel			Neck			Nose			RShoulder			RElbow			RWrist			LShoulder			LElbow			LWrist			
		X1	Y1	Z1	X2	Y2	Z2	X3	Y3	Z3	X4	Y4	Z4	X5	Y5	Z5	X6	Y6	Z6	X7	Y7	Z7	X8	Y8	Z8	X9	Y9	Z9	X10	Y10	Z10	X11	Y11	Z11	X12	Y12	Z12	X13	Y13	Z13	X14	Y14	Z14	X15	Y15	Z15	X16	Y16	Z16	X17	Y17	Z17	X18	Y18	Z18	X19	Y19	Z19	X20	Y20	Z20	X21	Y21	Z21	
10	0.3333333333333333	-0.2025286316790843	1.8345482830170698	-0.5724719540939677	-0.22539400774181792	1.8322403972922519	-0.5649205883028197	-0.22126334153509775	1.7042834109249583	-0.6042241160560478	-0.22469877230133872	1.5641982228356672	-0.5925515353275052	-0.2171776295304225	1.5370164192677083	-0.6946781503377283	-0.22733812298941417	1.5304191539166183	-0.6550605058547133	-0.2205065537899876	1.5501562515707277	-0.5646189367559834	-0.17901994574863705	1.83740882011175	-0.5684345933229431	-0.1756889546483102	1.7120027259416049	-0.5845561346659713	-0.17022375592620825	1.6088011843883914	-0.6050755575404654	-0.17292024652847118	1.5888385058294836	-0.5467070769703505	-0.1818826603970786	1.5869691030376656	-0.6003707426816274	-0.17473789570783888	1.5935988786345452	-0.5726162354830546	-0.2075933335642742	1.9875260368591443	-0.5553483003902551	-0.21024885247339944	2.0460834765204905	-0.6527149185067785	-0.23715051645397245	1.9856231662308867	-0.5443629595382946	-0.2566951904579071	1.9057738642264355	-0.5357528412805114	-0.2200975594459331	1.9231932489641943	-0.6601185664556292	-0.1808048029540491	1.9914024928243343	-0.5768584595478801	-0.18046990744844152	1.9192428948470728	-0.5975878599331554	-0.5334912379921204	1.8951142961151741	-0.314233409539963
11	0.36666666666666664	-0.20480348248269645	1.831979455092711	-0.5875621087732961	-0.23084892707845184	1.8280715992088643	-0.5809131160188903	-0.2287276993100552	1.7055851299720535	-0.6006718856300884	-0.2232099881996257	1.5644105865932965	-0.594517089641172	-0.21714237273420486	1.536299051529919	-0.6949619859971745	-0.22897722744386437	1.5308870795162701	-0.6575329207344767	-0.2205065537899876	1.5501562515707277	-0.5646189367559834	-0.17939622367443683	1.8352409384406168	-0.5978797166069081	-0.1664290486089758	1.7248560197254819	-0.6302050989874477	-0.17022375592620825	1.6088011843883914	-0.6050755575404654	-0.17495016378498582	1.5861552183349248	-0.5784322833027438	-0.17801828342285914	1.5921547445103705	-0.6052458973243289	-0.17473789570783888	1.5935988786345452	-0.5726162354830546	-0.20651155945678584	1.9867543351933568	-0.560926364947233	-0.2102586638279785	2.0472093457232514	-0.653340772648268	-0.2372784021725287	1.982483014428531	-0.5526217562545165	-0.2493099542333167	1.9021208456359688	-0.5386811081011126	-0.2076990634847241	1.9206205260286555	-0.6768825293366967	-0.1775361130135661	1.9911249423595971	-0.5846350097857951	-0.17786101254252537	1.920233424784187	-0.6279458064773077	-0.8973447709817355	1.8745032889708284	0.04453631079522258
12	0.4	-0.20638581249495663	1.8302468731835801	-0.602472059175529	-0.23080925456855544	1.8255717335439778	-0.5805142745803282	-0.23029891243250164	1.701469225117965	-0.5987786115233269	-0.2255185435377939	1.5655990719917101	-0.5919141651354785	-0.21857718611673843	1.5372060573190622	-0.689208860682324	-0.23028377275239312	1.531371493976265	-0.651718633551139	-0.2205065537899876	1.5501562515707277	-0.5646189367559834	-0.17813333792711653	1.8375645804329943	-0.6121680909471334	-0.16406916719014952	1.7245784567125586	-0.6579609899598136	-0.17022375592620825	1.6088011843883914	-0.6050755575404654	-0.17698008104150045	1.583471930840366	-0.6101574896351372	-0.17415390644863968	1.5973403859830755	-0.6101210519670305	-0.17473789570783888	1.5935988786345452	-0.5726162354830546	-0.20580770577519028	1.988065108509612	-0.5865716197446009	-0.20904268529088552	2.0471617802909847	-0.6585314301546729	-0.23798372490937872	1.9839983892385031	-0.555849437976661	-0.24476979667525536	1.9002181943072884	-0.5601301185821032	-0.20548325034821807	1.925403346671252	-0.6828035130559458	-0.17268978612416003	1.9930622586521047	-0.606587450109227	-0.17525211763660922	1.921223954721301	-0.6583037530214599	-1.2611983039713506	1.8538922818264825	0.4033060311304082
13	0.43333333333333335	-0.19997615878700922	1.8328068437106342	-0.6183929497810828	-0.2267416518023927	1.8268744779286528	-0.5852722342248868	-0.22844428345271756	1.7028672275795789	-0.6009016283235813	-0.2245823375554145	1.5661614617320656	-0.5929038806097333	-0.21926621196969054	1.5388461287470245	-0.6930389192458701	-0.22773627809390762	1.5319515316716463	-0.6549855342712483	-0.2205065537899876	1.5501562515707277	-0.5646189367559834	-0.17941079912973396	1.8393802119651776	-0.6572384003391013	-0.17678562110512977	1.7250762516267608	-0.69473351302357	-0.17022375592620825	1.6088011843883914	-0.6050755575404654	-0.1790099982980151	1.5807886433458072	-0.6418826959675306	-0.1703246362585522	1.5911953598622013	-0.6474707982260907	-0.17473789570783888	1.5935988786345452	-0.5726162354830546	-0.20239306751787203	1.9873788643027004	-0.5940433413675621	-0.20902539376612564	2.0471015065836964	-0.6586156308703158	-0.23594854263318993	1.9825898203135681	-0.5575605420663801	-0.24117647544870557	1.904334602405712	-0.5681363183042026	-1.3084922929743434	1.8377956480688964	0.4270943655864757	-0.16502766154889079	1.9939688991048463	-0.6389545299680037	-0.1498521636912723	1.9297425973219446	-0.6809570341621939	-1.2802325147542084	1.8573126009048802	0.42221298318417727
14	0.4666666666666667	-0.20178333755091746	1.8333133714775025	-0.6371032091258816	-0.22428125211128072	1.8260321066220913	-0.5874650615493646	-0.22747119159849116	1.7002545617426892	-0.5974262478315688	-0.2236461315730351	1.566723851472421	-0.5938935960839883	-0.2212364928898435	1.5370786266655554	-0.6911526109502616	-0.23168779828436553	1.529409030641211	-0.6512944883853594	-0.2205065537899876	1.5501562515707277	-0.5646189367559834	-0.17798990783017765	1.8375508721948859	-0.6751089614583246	-0.1843912118747116	1.7194664676617102	-0.7069659169475087	-0.16315995178240564	1.6084829002896261	-0.6416291133535944	-0.18103991555452972	1.5781053558512483	-0.6736079022999238	-0.16649536606846477	1.5850503337413269	-0.6848205444851508	-0.16160139285976513	1.6019594312624028	-0.6127511272847468	-0.1990883755963795	1.9865728119445056	-0.6014219438855906	-0.20678604186984068	2.0485329011158764	-0.6608741464969367	-0.23485528039917675	1.9823607843336197	-0.5544268817403029	-0.24811615585510466	1.9047670879383363	-0.5818579074983374	-1.3063674846342885	1.849041735720372	0.41636263632167414	-0.16554219370941217	1.9924494214872734	-0.6620218439214367	-0.14846334374560638	1.931037920884319	-0.7195450357342145	-1.270609950940716	1.8643849859933421	0.3842839528122787
15	0.5	-0.20013927677459425	1.832382098113803	-0.6429628610442183	-0.2205331610466423	1.8260675023509905	-0.5869005030884741	-0.22272010609622334	1.700860856891061	-0.5939390201692408	-0.22559827990541265	1.565838923082369	-0.5916571841021667	-0.21669195722329762	1.5410095211216959	-0.6751653320871868	-0.23287018249222147	1.5364584014095684	-0.6427654247488884	-0.2205065537899876	1.5501562515707277	-0.5646189367559834	-0.17851101037955833	1.8386138138313461	-0.6992858466860379	-0.17972823752238437	1.7096000409859957	-0.6945072041391598	-0.16498607538622576	1.5991096398075006	-0.6732442879122675	-0.19180644464683544	1.5673534606079549	-0.6966202859384425	-0.17630418399195127	1.5741577710217756	-0.7123253897619239	-0.1651965175186537	1.593571968767052	-0.6604923703177452	-0.19512670255438072	1.9865655461113612	-0.6262664321013465	-0.20671796111904786	2.0492299392792317	-0.6608721032901168	-0.22894177658016346	1.981356907589303	-0.5525488542640068	-0.24782218876713505	1.911817539012507	-0.5713772773496276	-1.321320089346273	1.8559087617878873	0.4423770501615542	-0.16279708403785723	1.9929666159599626	-0.6932445092050465	-1.2042994569590204	1.8385658873167714	0.3458018208445073	-0.1881061176200743	1.9630132919382814	-0.7374183365414381
16	0.5333333333333333	-0.195692336128627	1.8346726175901118	-0.6479555727453095	-0.21386742731341882	1.829648565570203	-0.5939066647929289	-0.22206078303386456	1.7030941200580925	-0.5991385298443785	-0.2244888295286436	1.567608203881345	-0.5890640500835063	-0.21973713040304882	1.5388756756052275	-0.6674875840181769	-0.23190663831764077	1.5386814381392333	-0.6305248205582636	-0.2205065537899876	1.5501562515707277	-0.5646189367559834	-0.1768750406872711	1.8397527335939872	-0.7050005450020143	-0.17788030704216493	1.7091191095583433	-0.6922775790518287	-0.16963000939586126	1.592235215378552	-0.6849440233074657	-0.19101319906481612	1.5587502683357948	-0.6978061329420582	-0.17501056969771067	1.5657337865225902	-0.7142152090851929	-0.17153716318620438	1.5902894033382036	-0.6753815570196899	-0.1918621175354875	1.9857887901929914	-0.6341057907280978	-0.2025382903215024	2.04886135396249	-0.6653703565599536	-0.22013240462469416	1.9800578421437	-0.5497193269778267	-0.2451202230460958	1.9091928359393742	-0.5613372121953275	-1.3805674389960993	1.863639812643356	0.5339316846970681	-0.15961605855277633	1.9922742907283086	-0.7126673793316823	-1.1534192015148783	1.836360000731652	0.26164999970984293	-0.19658369464209835	1.9542540234899273	-0.7333092304061917
17	0.5666666666666667	-0.19612502744980487	1.8364009369715901	-0.6478123049212474	-0.21384322601713876	1.8329488776356004	-0.5906544092554878	-0.22140145997150582	1.7053273832251237	-0.6043380395195161	-0.2244888295286436	1.567608203881345	-0.5890640500835063	-0.23654811421191374	1.5378651201388427	-0.6589727985049626	-0.24439237972043457	1.5367095976086949	-0.630823515575567	-0.2205065537899876	1.5501562515707277	-0.5646189367559834	-0.1773735249869669	1.8388823614634637	-0.7046402659336038	-0.17718632167883425	1.7109272657984755	-0.6891030001175856	-0.16882805455927766	1.592430670024341	-0.6819603781802517	-0.19164163925275945	1.5606739188682477	-0.6985832273904832	-0.17535259790101793	1.5671024631923132	-0.7145018337326177	-0.1690088958121324	1.5921182767168822	-0.6726425183476754	-0.1905411548939042	1.9857577952923111	-0.6393915624227887	-0.20273127953533918	2.046798099458194	-0.6654617579436156	-0.21499866624575342	1.980166294415075	-0.5509634850260088	-0.23737941659986442	1.9061887702949873	-0.544188340200609	-1.422247337947236	1.8610045348524704	0.6104450863038133	-0.16283971667911462	1.9929340192704104	-0.725063923349446	-1.151138746260973	1.8347434094305066	0.24929971980289622	-0.2015809890470969	1.958183793001648	-0.7206528121027127
18	0.6	-0.19834409089131397	1.8349705959790528	-0.645221859170474	-0.21007208806239755	1.832918771268115	-0.5777113310542735	-0.22926906208939052	1.7025686417869061	-0.6001313360029227	-0.2244888295286436	1.567608203881345	-0.5890640500835063	-0.24264769511504852	1.5460580895465732	-0.6377870476963055	-0.24439237972043457	1.5367095976086949	-0.630823515575567	-0.2205065537899876	1.5501562515707277	-0.5646189367559834	-0.1776753069491798	1.837350930862632	-0.7043330386128439	-0.1775057469704656	1.7125401299676715	-0.6889764028924404	-0.17002932405206084	1.5920475411498012	-0.6766816528292855	-0.19225127141879103	1.5601673120016368	-0.6937992678455824	-0.1750039658302939	1.5677618128875956	-0.7150339684258256	-0.16648062843806044	1.5939471500955609	-0.669903479675661	-0.18845792186231453	1.985179002810449	-0.6418700803519707	-0.20274671981884526	2.0464218941044927	-0.6653828445484309	-1.6570120407418496	1.888266336707371	1.026622595741664	-0.2299135303894668	1.9009723597923807	-0.5206107813361363	-0.23406185944029814	1.9426719033854083	-0.6175898564171747	-0.16670117692493785	1.9926966381408768	-0.7290034071762764	-1.1258977618544292	1.8325519396175913	0.1965357386521797	-0.20533029152656282	1.9498379021896362	-0.6920719369917452
